<?xml version="1.0" encoding="utf-8"?>
<!-- Generator: Adobe Illustrator 19.2.1, SVG Export Plug-In . SVG Version: 6.00 Build 0)  -->
<svg version="1.1" xmlns="http://www.w3.org/2000/svg" xmlns:xlink="http://www.w3.org/1999/xlink" x="0px" y="0px"
	 viewBox="0 0 170 100" style="enable-background:new 0 0 170 100;" xml:space="preserve">
<style type="text/css">
	.st0{display:none;}
	.st1{display:inline;fill:#10069F;}
	.st2{display:inline;}
	.st3{fill:#EE2737;}
	.st4{display:inline;fill:#963CBD;}
	.st5{display:inline;fill:#BBBCBC;}
</style>
<g id="Layer_1" class="st0">
	<title>Actionable Logo-RGB</title>
	<path class="st1" d="M42.3,67.8L42.3,67.8L42.3,67.8L28.9,30.7l0,0v-0.1c-0.7-1.9-2.5-3.3-4.6-3.3h-0.5c-2.1,0.1-3.9,1.4-4.6,3.3
		c0,0,0,0,0,0.1l0,0l-13.5,37l0,0c0,0,0,0,0,0.1c-1,2.6,0.4,5.6,3.1,6.5c2.6,1,5.6-0.4,6.5-3.1c0,0,0,0,0-0.1l0,0l2.1-5.9h13.1
		l2.1,5.9l0,0c0,0,0,0,0,0.1c1.2,2.6,4.2,3.7,6.8,2.5C41.8,72.7,43,70.2,42.3,67.8z M20.6,43.2h6.9c0.9,0,1.6,0.7,1.6,1.6
		c0,0.9-0.7,1.6-1.6,1.6h-6.9c-0.9,0-1.6-0.7-1.6-1.6C19,43.9,19.7,43.2,20.6,43.2L20.6,43.2z M28.8,55.3H16.6
		c-0.9,0-1.6-0.7-1.6-1.6c0-0.9,0.7-1.6,1.6-1.6h12.1c0.9,0.1,1.5,0.9,1.4,1.8C30.1,54.6,29.5,55.2,28.8,55.3L28.8,55.3z M30.1,50.9
		h-9.3c-0.9,0-1.6-0.7-1.6-1.6c0-0.9,0.7-1.6,1.6-1.6h9.3c0.9,0.1,1.5,0.9,1.4,1.8C31.5,50.2,30.9,50.8,30.1,50.9L30.1,50.9z"/>
	<path class="st2" d="M52.9,60.6l-5.3,13.1h2.6l1.3-3.2H57l1.3,3.2h2.8l-5.3-13.1H52.9L52.9,60.6z M54.2,63.6L54.2,63.6l2.1,4.9h-4
		L54.2,63.6L54.2,63.6z M60.8,69.1c-0.1,2.5,1.8,4.7,4.4,4.8c0.2,0,0.3,0,0.5,0c2.3,0.1,4.3-1.6,4.4-3.9c0,0,0,0,0-0.1L68,69.8
		c-0.2,1.4-1,2.3-2.3,2.3c-1.4,0-2.3-1-2.3-2.9s1-2.9,2.3-2.9c1.2,0,2.3,0.9,2.3,2.2c0,0,0,0,0,0.1l2.1-0.1c-0.1-2.3-2.1-4.1-4.4-4
		c0,0,0,0-0.1,0c-2.5-0.1-4.7,1.8-4.8,4.4C60.8,68.8,60.8,69,60.8,69.1L60.8,69.1L60.8,69.1z M71.5,71.4c-0.2,1.3,0.7,2.4,2,2.6
		c0.2,0,0.4,0,0.6,0c0.9,0,1.8-0.2,2.5-0.8v-1.7c-0.5,0.3-1,0.4-1.6,0.4c-0.5,0.1-1-0.3-1.1-0.8c0-0.1,0-0.2,0-0.3v-4.5h2.5v-1.7H74
		V62h-1.5l-0.3,1.2c0,0.8-0.6,1.4-1.4,1.5l-0.6,0.1v1.5h1.3V71.4L71.5,71.4z M77.6,64.5v9.2H80v-9.2H77.6z M77.6,63h2.6v-2.4h-2.6
		V63L77.6,63z M83.5,69.1c0-1.7,0.8-3,2.3-3c1.5,0,2.3,1.2,2.3,3S87.4,72,85.8,72C84.3,72,83.5,70.8,83.5,69.1L83.5,69.1z
		 M90.7,69.1c0-2.7-2.2-4.8-4.8-4.8c-2.7,0-4.8,2.2-4.8,4.8c0,2.7,2.2,4.8,4.8,4.8c2.6,0.1,4.7-1.9,4.8-4.4
		C90.7,69.4,90.7,69.2,90.7,69.1L90.7,69.1z M94.2,68.8c0-1.5,0.8-2.5,2.1-2.5S98,67,98,68.5v5.2h2.5v-5.7c0-2-0.9-3.7-3.3-3.7
		c-1.3-0.1-2.4,0.6-3,1.7v-1.5h-2.5v9.2h2.5V68.8L94.2,68.8L94.2,68.8z M107.5,69.7c0.1,1.3-0.9,2.4-2.1,2.5c-0.1,0-0.1,0-0.2,0
		c-0.6,0.1-1.1-0.3-1.2-0.8c0,0,0-0.1,0-0.2c0-0.9,0.8-1.1,1.9-1.3l1.7-0.4L107.5,69.7L107.5,69.7L107.5,69.7z M109.9,67.8
		c0-2.4-1.6-3.5-3.9-3.5s-3.9,1.3-4.2,3.2l2.3,0.2c0.1-0.9,0.9-1.6,1.8-1.5c0.8-0.1,1.5,0.5,1.6,1.3c0,0.1,0,0.2,0,0.3V68l-2.5,0.5
		c-2.1,0.4-3.5,1.1-3.5,2.9c0,1.6,1.2,2.5,3.1,2.5c1.3,0.1,2.5-0.5,3.1-1.6c0.1,1,1,1.6,1.9,1.6c0.6,0,1.2-0.2,1.7-0.6V72
		c-0.2,0.1-0.5,0.2-0.8,0.2c-0.3,0-0.6-0.2-0.6-0.6c0,0,0-0.1,0-0.1L109.9,67.8L109.9,67.8L109.9,67.8z M114.5,68.9
		c0-1.7,1-2.7,2.4-2.7c1.6,0,2.4,1.1,2.4,2.9s-0.8,2.9-2.4,2.9c-1.4,0-2.4-1-2.4-2.7V68.9L114.5,68.9L114.5,68.9z M114.3,71.9
		c0.6,1.3,1.8,2.1,3.2,2c2.7,0,4.2-2.1,4.2-4.8s-1.4-4.8-4.1-4.8c-1.4-0.1-2.7,0.7-3.2,2v-5.7H112v13.1h1.9L114.3,71.9L114.3,71.9
		L114.3,71.9z M122.7,60.6v13.1h2.5V60.6L122.7,60.6L122.7,60.6z M133.4,70.5c-0.3,1-1.3,1.7-2.3,1.6c-1.3,0-2.4-1-2.5-2.3h6.8v-0.9
		c0.1-2.4-1.7-4.4-4.1-4.6c-0.2,0-0.3,0-0.5,0c-2.6,0-4.8,2.1-4.8,4.7c0,0.1,0,0.2,0,0.3c0,2.9,2,4.7,4.9,4.7c2.3,0,3.9-1.2,4.4-3.2
		L133.4,70.5L133.4,70.5L133.4,70.5z M128.6,68.2c0.1-1.2,1.1-2.1,2.3-2.1c1.1,0,2.1,0.9,2.1,2c0,0,0,0,0,0.1H128.6z M136,73.7h2.8
		v-2.8H136V73.7L136,73.7z"/>
</g>
<g id="Layer_2">
	<path d="M54.9,73.8h-6.2V60.7h5.8c3.3,0,4.7,1.4,4.7,3.6c0,1.5-1,2.5-2.4,2.8c1.6,0.3,2.8,1.3,2.8,3.2C59.7,72.5,58,73.8,54.9,73.8
		L54.9,73.8z M51.3,66.1h3.1c1.6,0,2.3-0.7,2.3-1.6c0-1-0.7-1.6-2.3-1.6h-3.1V66.1L51.3,66.1z M51.3,68v3.6h3.3
		c1.6,0,2.4-0.7,2.4-1.7c0-1.1-0.8-1.8-2.4-1.8H51.3L51.3,68z"/>
	<path d="M65.2,74c-2.9,0-4.9-2-4.9-4.9c0-2.9,2-4.9,4.9-4.9c2.9,0,4.9,2,4.9,4.9C70,72,68,74,65.2,74L65.2,74z M65.2,72.1
		c1.6,0,2.3-1.2,2.3-2.9c0-1.7-0.8-2.9-2.3-2.9c-1.6,0-2.3,1.2-2.3,2.9C62.9,70.9,63.7,72.1,65.2,72.1L65.2,72.1z"/>
	<path d="M75.5,74c-2.9,0-4.9-2-4.9-4.9c0-2.9,2-4.9,4.9-4.9s4.9,2,4.9,4.9C80.3,72,78.3,74,75.5,74L75.5,74z M75.5,72.1
		c1.6,0,2.3-1.2,2.3-2.9c0-1.7-0.8-2.9-2.3-2.9s-2.3,1.2-2.3,2.9C73.2,70.9,74,72.1,75.5,72.1L75.5,72.1z"/>
	<polygon points="83.7,73.8 81.2,73.8 81.2,60.7 83.7,60.7 83.7,68.3 87.6,64.6 90.6,64.6 86.6,68.3 90.8,73.8 87.9,73.8 84.8,69.7 
		83.7,70.6 	"/>
	<path d="M92.6,70.6c0.2,1.1,1,1.6,2.3,1.6c1,0,1.6-0.3,1.6-1c0-0.6-0.4-0.9-1.3-1L93.8,70c-2-0.3-3-1-3-2.8c0-1.7,1.5-2.9,3.8-2.9
		c2.5,0,4.1,1.1,4.2,3.2l-2.1,0.1c-0.2-1-0.9-1.6-2.2-1.6c-0.9,0-1.5,0.4-1.5,1c0,0.5,0.3,0.8,1,0.9l1.7,0.3
		c1.9,0.3,3.1,1.1,3.1,2.9c0,1.9-1.6,2.9-4,2.9c-2.4,0-4.2-1-4.4-3.3L92.6,70.6L92.6,70.6z"/>
	<polygon points="99.6,71 102.3,71 102.3,73.8 99.6,73.8 	"/>
	<path class="st3" d="M42.4,67.9L42.4,67.9L42.4,67.9L28.9,30.8l0,0c0,0,0,0,0-0.1c-0.7-2-2.6-3.3-4.6-3.4c-0.1,0-0.2,0-0.3,0
		c-0.1,0-0.2,0-0.3,0c-2,0.1-3.8,1.4-4.6,3.4c0,0,0,0,0,0.1l0,0l-13.4,37l0,0c0,0,0,0,0,0.1c-1,2.6,0.4,5.5,3,6.5
		c2.7,1,5.5-0.4,6.5-3c0,0,0,0,0-0.1l0,0l2.2-5.9h13.2l2.2,5.9l0,0c0,0,0,0,0,0.1c1,2.6,3.9,4,6.5,3C42.1,73.4,43.4,70.6,42.4,67.9z
		 M30.5,52.1c-0.3,0.7-1.2,0.9-1.9,0.5l-3-1.7v3.6c0,0.8-0.6,1.4-1.4,1.4c-0.8,0-1.4-0.6-1.4-1.4v-3.6l-3,1.7
		c-0.7,0.3-1.5,0.2-1.9-0.5c-0.3-0.7-0.2-1.5,0.5-1.9l3-1.7l-3-1.7c-0.7-0.3-0.9-1.2-0.5-1.9s1.2-0.9,1.9-0.5l3,1.7v-3.6
		c0-0.8,0.6-1.4,1.4-1.4c0.8,0,1.4,0.6,1.4,1.4V46l3-1.7c0.7-0.3,1.5-0.2,1.9,0.5c0.3,0.7,0.2,1.5-0.5,1.9l-3,1.7l3,1.7
		C30.7,50.6,30.8,51.5,30.5,52.1z"/>
	<path d="M53,45.1l-5.3,13.1h2.6l1.3-3.2h5.5l1.3,3.2h2.8l-5.4-13.1H53L53,45.1z M54.3,48L54.3,48l2.1,4.9h-4L54.3,48L54.3,48z
		 M60.9,53.6c0,2.9,2,4.9,4.9,4.9c2.7,0,4.2-1.8,4.4-4l-2.1-0.2c-0.2,1.4-1,2.3-2.3,2.3c-1.4,0-2.3-1-2.3-2.9s1-2.9,2.3-2.9
		c1.4,0,2.2,0.9,2.3,2.3l2.1-0.2c-0.2-2.2-1.7-4-4.4-4C62.9,48.7,60.9,50.6,60.9,53.6L60.9,53.6z M71.7,55.8c0,2,1.2,2.6,2.6,2.6
		c1.1,0,1.9-0.3,2.5-0.8V56c-0.5,0.3-1,0.4-1.6,0.4c-0.8,0-1.1-0.3-1.1-1.1v-4.5h2.5v-1.7h-2.5v-2.6h-1.6l-0.3,1.2
		c-0.2,0.9-0.4,1.3-1.4,1.5l-0.6,0.1v1.5h1.3L71.7,55.8L71.7,55.8z M77.6,49v9.2h2.5V49H77.6L77.6,49z M77.6,47.5h2.6v-2.4h-2.6
		V47.5L77.6,47.5z M83.6,53.6c0-1.7,0.8-2.9,2.3-2.9c1.6,0,2.3,1.2,2.3,2.9s-0.8,2.9-2.3,2.9C84.4,56.5,83.6,55.3,83.6,53.6
		L83.6,53.6z M90.7,53.6c0-2.9-2-4.9-4.9-4.9c-2.9,0-4.9,2-4.9,4.9c0,2.9,2,4.9,4.9,4.9C88.7,58.4,90.7,56.4,90.7,53.6L90.7,53.6z
		 M94.2,53.2c0-1.6,0.8-2.5,2.1-2.5c1.2,0,1.8,0.8,1.8,2.3v5.2h2.5v-5.7c0-2.1-0.9-3.7-3.4-3.7c-1.4,0-2.5,0.7-3,1.7V49h-2.5v9.2
		h2.5V53.2L94.2,53.2z M107.5,54.2c0,1.5-1,2.5-2.3,2.5c-0.8,0-1.3-0.3-1.3-1c0-1,0.8-1.1,1.8-1.3l1.7-0.3L107.5,54.2L107.5,54.2z
		 M110,52.3c0-2.4-1.6-3.6-3.9-3.6c-2.4,0-3.9,1.3-4.2,3.2l2.3,0.2c0.2-0.9,0.8-1.6,1.8-1.6c1,0,1.6,0.6,1.6,1.6v0.2l-2.5,0.5
		c-2.1,0.4-3.5,1.1-3.5,2.9c0,1.6,1.1,2.5,3.1,2.5c1.4,0,2.6-0.5,3.1-1.6c0.3,1,0.9,1.6,1.9,1.6c0.9,0,1.3-0.3,1.7-0.6v-1.3
		c-0.3,0.1-0.5,0.2-0.8,0.2c-0.4,0-0.6-0.3-0.6-0.7L110,52.3L110,52.3z M114.5,53.4c0-1.6,1-2.7,2.4-2.7c1.6,0,2.4,1.1,2.4,2.9
		s-0.8,2.9-2.4,2.9c-1.4,0-2.4-1-2.4-2.7V53.4L114.5,53.4z M114.4,56.3c0.5,1.1,1.6,2,3.2,2c2.8,0,4.2-2.1,4.2-4.9
		c0-2.7-1.5-4.9-4.2-4.9c-1.6,0-2.8,0.9-3.1,2v-5.7H112V58h1.9L114.4,56.3L114.4,56.3z M122.7,45.1v13.1h2.5V45.1H122.7L122.7,45.1z
		 M133.4,55c-0.3,1-1,1.6-2.3,1.6c-1.4,0-2.4-1-2.5-2.3h6.8v-0.9c0-2.5-1.6-4.6-4.5-4.6c-2.8,0-4.8,2.1-4.8,4.9s2.1,4.7,4.9,4.7
		c2.3,0,3.9-1.2,4.4-3.2L133.4,55L133.4,55z M128.6,52.6c0.3-1.1,1-2.1,2.3-2.1c1.4,0,2.1,1,2.1,2.1H128.6L128.6,52.6z"/>
</g>
<g id="Layer_4" class="st0">
	<path class="st2" d="M54.6,60.3c3.9,0,6,2.4,6.2,5.7l-2.5,0.1c-0.2-2-1.4-3.6-3.7-3.6c-2.4,0-3.9,1.7-3.9,4.5
		c0,2.8,1.5,4.5,3.9,4.5c2.3,0,3.6-1.6,3.7-3.6l2.5,0.1c-0.2,3.3-2.4,5.7-6.2,5.7c-3.8,0-6.8-3-6.8-6.8
		C47.8,63.4,50.9,60.3,54.6,60.3L54.6,60.3L54.6,60.3z"/>
	<path class="st2" d="M66.3,74c-2.7,0-4.8-2.2-4.8-4.8c0-2.7,2.2-4.8,4.8-4.8s4.8,2.2,4.8,4.8c0.1,2.5-1.9,4.7-4.4,4.8
		C66.6,74,66.4,74,66.3,74L66.3,74z M66.3,72.1c1.5,0,2.3-1.2,2.3-2.9s-0.8-3-2.3-3c-1.5,0-2.3,1.2-2.3,3S64.8,72.1,66.3,72.1
		L66.3,72.1z"/>
	<path class="st2" d="M74.5,73.7H72v-9.2h2.5V66c0.6-1.1,1.7-1.8,3-1.7c2.5,0,3.4,1.7,3.4,3.7v5.7h-2.5v-5.2c0-1.4-0.6-2.2-1.8-2.2
		c-1.2,0-2.1,1-2.1,2.5L74.5,73.7L74.5,73.7L74.5,73.7z"/>
	<polygon class="st2" points="84.5,73.7 80.9,64.5 83.5,64.5 85.9,70.9 86,70.9 88.4,64.5 90.9,64.5 87.2,73.7 84.5,73.7 	"/>
	<path class="st2" d="M99.6,70.7c-0.5,2-2.1,3.2-4.4,3.2c-2.8,0-4.9-1.8-4.9-4.7c-0.1-2.6,1.9-4.8,4.5-5c0.1,0,0.2,0,0.3,0
		c2.4-0.1,4.4,1.7,4.5,4.1c0,0.2,0,0.3,0,0.5v0.9h-6.9c0.1,1.3,1.2,2.3,2.5,2.3c1,0.1,2-0.5,2.3-1.6L99.6,70.7L99.6,70.7L99.6,70.7z
		 M97.2,68.2c0-1.1-0.9-2.1-2.1-2.1c0,0,0,0-0.1,0c-1.2,0-2.2,0.9-2.3,2.1H97.2z"/>
	<path class="st2" d="M106.9,67c-0.5-0.3-1-0.4-1.5-0.4c-1.3,0-2.2,0.9-2.2,2.6v4.5h-2.5v-9.2h2.5v1.7c0.3-1.2,1.4-2,2.6-2
		c0.5,0,0.9,0.1,1.3,0.4L106.9,67L106.9,67L106.9,67z"/>
	<path class="st2" d="M109.2,70.6c0.1,1.1,1,1.7,2.2,1.7c0.9,0,1.7-0.3,1.7-1c0-0.7-0.4-0.9-1.3-1l-1.5-0.3c-2-0.3-3-1-3-2.7
		c0-1.7,1.5-3,3.8-3c2.5,0,4.1,1.1,4.2,3.2l-2.1,0.1c-0.2-1-0.9-1.6-2.2-1.6c-0.9,0-1.5,0.4-1.5,1c0,0.5,0.5,0.9,1,0.9l1.7,0.3
		c1.9,0.3,3.1,1.1,3.1,2.9c0,1.9-1.6,2.9-4,2.9s-4.2-1-4.4-3.3L109.2,70.6L109.2,70.6L109.2,70.6z"/>
	<path class="st2" d="M124.4,71.5c-0.1,0.3,0.2,0.6,0.5,0.7c0,0,0.1,0,0.1,0c0.3,0,0.5-0.1,0.8-0.2v1.3c-0.5,0.4-1.1,0.6-1.7,0.6
		c-1,0-1.8-0.7-1.9-1.6c-0.7,1.1-1.9,1.7-3.1,1.6c-1.9,0-3.1-1-3.1-2.5c0-1.7,1.4-2.5,3.5-2.9L122,68v-0.2c0.1-0.8-0.5-1.5-1.3-1.6
		c-0.1,0-0.2,0-0.3,0c-0.9,0-1.7,0.6-1.8,1.5l-2.3-0.2c0.3-1.9,1.7-3.2,4.2-3.2c2.4,0,3.9,1.1,3.9,3.5L124.4,71.5L124.4,71.5
		L124.4,71.5z M122,69.5l-1.7,0.4c-1.1,0.2-1.9,0.4-1.9,1.3c0,0.6,0.5,1,1.1,1c0.1,0,0.1,0,0.2,0c1.3,0,2.3-1,2.3-2.3
		c0-0.1,0-0.1,0-0.2L122,69.5L122,69.5L122,69.5z"/>
	<path class="st2" d="M126.7,66.3h-1.3v-1.5l0.6-0.1c0.7-0.1,1.3-0.7,1.4-1.5l0.3-1.2h1.5v2.5h2.5v1.7h-2.5v4.5
		c-0.1,0.5,0.3,1,0.8,1.1c0.1,0,0.2,0,0.3,0c0.5,0,1.1-0.2,1.6-0.4v1.6c-0.7,0.5-1.6,0.8-2.5,0.8c-1.3,0.2-2.4-0.7-2.6-2
		c0-0.2,0-0.4,0-0.6V66.3L126.7,66.3L126.7,66.3z"/>
	<path class="st2" d="M132.7,60.6h2.6V63h-2.6V60.6L132.7,60.6z M135.2,64.5v9.2h-2.5v-9.2H135.2z"/>
	<path class="st2" d="M141,74c-2.7,0-4.8-2.2-4.8-4.8c0-2.7,2.2-4.8,4.8-4.8c2.7,0,4.8,2.2,4.8,4.8c0.1,2.5-1.9,4.7-4.4,4.8
		C141.3,74,141.2,74,141,74L141,74z M141,72.1c1.5,0,2.3-1.2,2.3-2.9s-0.8-3-2.3-3c-1.5,0-2.3,1.2-2.3,3S139.5,72.1,141,72.1
		L141,72.1z"/>
	<path class="st2" d="M149.3,73.7h-2.5v-9.2h2.5V66c0.6-1.1,1.7-1.8,3-1.7c2.5,0,3.3,1.7,3.3,3.7v5.7h-2.5v-5.2
		c0-1.4-0.6-2.2-1.8-2.2c-1.2,0-2.1,1-2.1,2.5L149.3,73.7L149.3,73.7L149.3,73.7z"/>
	<path class="st2" d="M158.6,70.6c0.1,1.1,1,1.7,2.2,1.7c0.9,0,1.7-0.3,1.7-1c0-0.7-0.4-0.9-1.3-1l-1.5-0.3c-2-0.3-3-1-3-2.7
		c0-1.7,1.5-3,3.8-3c2.5,0,4.1,1.1,4.2,3.2l-2.1,0.1c-0.2-1-0.9-1.6-2.2-1.6c-0.9,0-1.5,0.4-1.5,1c0,0.5,0.5,0.9,1,0.9l1.7,0.3
		c1.9,0.3,3.1,1.1,3.1,2.9c0,1.9-1.6,2.9-4,2.9s-4.2-1-4.4-3.3L158.6,70.6L158.6,70.6L158.6,70.6z"/>
	<polygon class="st2" points="165.5,70.9 168.3,70.9 168.3,73.7 165.5,73.7 165.5,70.9 	"/>
	<path class="st4" d="M42.5,67.8C42.5,67.8,42.5,67.8,42.5,67.8L42.5,67.8L29,30.7l0,0v-0.1c-0.7-1.9-2.5-3.3-4.6-3.3H24
		c-2.1,0.1-3.9,1.4-4.6,3.3c0,0,0,0,0,0.1l0,0l-13.5,37l0,0c0,0,0,0,0,0.1c-1,2.6,0.4,5.6,3.1,6.5c2.6,1,5.6-0.4,6.5-3.1
		c0,0,0,0,0-0.1l0,0l2.2-5.9h13.1l2.1,5.9l0,0c0,0,0,0,0,0.1c1.2,2.5,4.3,3.6,6.8,2.4C41.9,72.6,43.1,70.2,42.5,67.8z M17.7,47.5
		L17.7,47.5c-0.2-0.8-0.2-1.6,0-2.4c0.7-3,3.7-4.9,6.7-4.2c0.3,0.1,0.5,0.4,0.4,0.7c-0.1,0.3-0.4,0.5-0.7,0.4
		c-1.5-0.3-3.1,0.1-4.1,1.2c2-0.9,4.3,0.1,5.2,2.1c0.9,2-0.1,4.3-2.1,5.2c-2,0.9-4.3-0.1-5.2-2.1C17.9,48,17.8,47.8,17.7,47.5
		L17.7,47.5z M31.7,54.2c-0.7,3-3.6,4.9-6.7,4.2c0,0,0,0,0,0c-0.3-0.1-0.5-0.4-0.4-0.7c0.1-0.3,0.4-0.5,0.7-0.4
		c1.5,0.3,3-0.1,4.1-1.2c-2,0.9-4.3,0-5.2-2c-0.9-2,0-4.3,2-5.2c2-0.9,4.3,0,5.2,2c0.1,0.3,0.2,0.6,0.3,0.9c0,0,0,0,0,0
		C31.9,52.7,31.9,53.5,31.7,54.2L31.7,54.2z"/>
	<path class="st2" d="M53,45l-5.3,13.1h2.6l1.3-3.2h5.6l1.3,3.2h2.8L55.9,45H53L53,45z M54.4,47.9L54.4,47.9l2.1,4.9h-4L54.4,47.9
		L54.4,47.9L54.4,47.9z M60.9,53.5c-0.1,2.5,1.8,4.7,4.4,4.8c0.2,0,0.3,0,0.5,0c2.3,0.1,4.3-1.6,4.4-3.9c0,0,0,0,0-0.1l-2.1-0.2
		c-0.2,1.4-1,2.3-2.3,2.3c-1.4,0-2.3-1-2.3-2.9s1-2.9,2.3-2.9c1.2,0,2.3,0.9,2.3,2.2c0,0,0,0,0,0.1l2.1-0.1c-0.1-2.3-2.1-4.1-4.4-4
		c0,0,0,0-0.1,0c-2.5-0.1-4.7,1.8-4.8,4.4C60.9,53.2,60.9,53.4,60.9,53.5L60.9,53.5L60.9,53.5z M71.7,55.8c-0.2,1.3,0.7,2.4,2,2.6
		c0.2,0,0.4,0,0.6,0c0.9,0,1.8-0.2,2.5-0.8v-1.6c-0.5,0.3-1,0.4-1.6,0.4c-0.5,0.1-1-0.3-1.1-0.8c0-0.1,0-0.2,0-0.3v-4.5h2.5V49h-2.5
		v-2.6h-1.5l-0.3,1.2c0,0.8-0.6,1.4-1.4,1.5l-0.6,0.1v1.5h1.3L71.7,55.8L71.7,55.8L71.7,55.8z M77.7,48.9v9.2h2.5v-9.2L77.7,48.9
		L77.7,48.9z M77.7,47.4h2.6V45h-2.6V47.4L77.7,47.4z M83.7,53.5c0-1.7,0.8-3,2.3-3c1.5,0,2.3,1.2,2.3,3c0,1.8-0.8,2.9-2.3,2.9
		C84.4,56.4,83.7,55.2,83.7,53.5L83.7,53.5z M90.8,53.5c0-2.7-2.2-4.8-4.8-4.8c-2.7,0-4.8,2.2-4.8,4.8c0,2.7,2.2,4.8,4.8,4.8
		c2.6,0.1,4.7-1.9,4.8-4.4C90.8,53.7,90.8,53.6,90.8,53.5L90.8,53.5z M94.3,53.2c0-1.5,0.8-2.5,2.1-2.5s1.8,0.8,1.8,2.2V58h2.5v-5.7
		c0-2-0.9-3.7-3.3-3.7c-1.3-0.1-2.4,0.6-3,1.7v-1.5h-2.5v9.2h2.5V53.2L94.3,53.2L94.3,53.2z M107.6,54.1c0.1,1.3-0.9,2.4-2.1,2.5
		c-0.1,0-0.1,0-0.2,0c-0.6,0.1-1.1-0.3-1.2-0.8c0,0,0-0.1,0-0.2c0-0.9,0.8-1.1,1.9-1.3l1.7-0.4L107.6,54.1L107.6,54.1L107.6,54.1z
		 M110,52.2c0-2.4-1.6-3.5-3.9-3.5s-3.9,1.3-4.2,3.2l2.3,0.2c0.1-0.9,0.9-1.6,1.8-1.5c0.8-0.1,1.5,0.5,1.6,1.3c0,0.1,0,0.2,0,0.3
		v0.2l-2.5,0.5c-2.1,0.4-3.5,1.1-3.5,2.9c0,1.6,1.2,2.5,3.1,2.5c1.3,0.1,2.5-0.5,3.1-1.6c0.1,0.9,1,1.6,1.9,1.6
		c0.6,0,1.2-0.2,1.7-0.6v-1.3c-0.2,0.1-0.5,0.2-0.8,0.2c-0.3,0-0.6-0.2-0.6-0.6c0,0,0-0.1,0-0.1L110,52.2L110,52.2L110,52.2z
		 M114.6,53.3c0-1.7,1-2.7,2.4-2.7c1.6,0,2.4,1.1,2.4,2.9s-0.8,2.9-2.4,2.9c-1.4,0-2.4-1-2.4-2.7V53.3L114.6,53.3L114.6,53.3z
		 M114.5,56.3c0.6,1.3,1.8,2.1,3.2,2c2.7,0,4.2-2.1,4.2-4.8s-1.4-4.8-4.1-4.8c-1.4-0.1-2.7,0.7-3.2,2V45h-2.5v13.1h1.9L114.5,56.3
		L114.5,56.3L114.5,56.3z M122.8,45v13.1h2.5V45L122.8,45L122.8,45z M133.5,54.9c-0.3,1-1.3,1.7-2.3,1.6c-1.3,0-2.4-1-2.5-2.3h6.9
		v-0.9c0.1-2.4-1.7-4.4-4.1-4.6c-0.2,0-0.3,0-0.5,0c-2.6,0-4.8,2.1-4.8,4.7c0,0.1,0,0.2,0,0.3c0,2.9,2,4.7,4.9,4.7
		c2.3,0,3.9-1.2,4.4-3.2L133.5,54.9L133.5,54.9L133.5,54.9z M128.7,52.6c0.1-1.2,1.1-2.1,2.3-2.1c1.1,0,2.1,0.9,2.1,2c0,0,0,0,0,0.1
		h-4.5H128.7z"/>
</g>
<g id="Layer_3" class="st0">
	<path class="st2" d="M83.6,70.6c0.1,1.1,1,1.7,2.2,1.7c0.9,0,1.7-0.3,1.7-1s-0.4-0.9-1.3-1L84.8,70c-2-0.3-3-1-3-2.7
		c0-1.7,1.5-3,3.8-3c2.5,0,4.1,1.1,4.2,3.2l-2.1,0.1c-0.2-1-0.9-1.6-2.2-1.6c-0.9,0-1.5,0.4-1.5,1c0,0.5,0.5,0.9,1,0.9l1.7,0.3
		c1.9,0.3,3.1,1.1,3.1,2.9c0,1.9-1.6,2.9-4,2.9c-2.4,0-4.2-1-4.4-3.3L83.6,70.6L83.6,70.6L83.6,70.6z"/>
	<path class="st2" d="M97,64.5h2.5v9.2H97v-1.5c-0.5,1.1-1.7,1.8-3,1.7c-2.4,0-3.3-1.6-3.3-3.7v-5.7h2.5v5.2c0,1.4,0.5,2.2,1.7,2.2
		s2-1,2-2.6L97,64.5L97,64.5L97,64.5z"/>
	<polygon class="st2" points="103.3,60.6 103.3,73.7 100.8,73.7 100.8,60.6 103.3,60.6 	"/>
	<path class="st2" d="M105.3,66.3H104v-1.5l0.6-0.1c0.7-0.1,1.3-0.7,1.4-1.5l0.3-1.2h1.5v2.5h2.5v1.7h-2.5v4.5
		c-0.1,0.5,0.3,1,0.8,1.1c0.1,0,0.2,0,0.3,0c0.5,0,1.1-0.2,1.6-0.4v1.6c-0.7,0.5-1.6,0.8-2.5,0.8c-1.3,0.2-2.4-0.7-2.6-2
		c0-0.2,0-0.4,0-0.6L105.3,66.3L105.3,66.3L105.3,66.3z"/>
	<path class="st2" d="M119.3,71.5c-0.1,0.3,0.2,0.7,0.5,0.7c0,0,0.1,0,0.1,0c0.3,0,0.5-0.1,0.8-0.2v1.3c-0.5,0.4-1.1,0.6-1.7,0.6
		c-1,0-1.8-0.7-1.9-1.6c-0.7,1.1-1.9,1.7-3.1,1.6c-1.9,0-3.1-1-3.1-2.5c0-1.7,1.4-2.5,3.5-2.9l2.5-0.5v-0.2c0.1-0.8-0.5-1.5-1.3-1.6
		c-0.1,0-0.2,0-0.3,0c-0.9,0-1.7,0.6-1.8,1.5l-2.2-0.2c0.3-1.9,1.7-3.2,4.2-3.2s3.9,1.1,3.9,3.5L119.3,71.5L119.3,71.5L119.3,71.5z
		 M116.8,69.5l-1.7,0.4c-1.1,0.2-1.9,0.4-1.9,1.3c0,0.6,0.5,1,1.1,1c0.1,0,0.1,0,0.2,0c1.3,0,2.3-1,2.3-2.3c0-0.1,0-0.1,0-0.2
		L116.8,69.5L116.8,69.5L116.8,69.5z"/>
	<path class="st2" d="M123.8,73.7h-2.5v-9.2h2.5V66c0.6-1.1,1.7-1.8,3-1.7c2.5,0,3.4,1.7,3.4,3.7v5.7h-2.5v-5.2
		c0-1.4-0.6-2.2-1.8-2.2s-2.1,1-2.1,2.5L123.8,73.7L123.8,73.7L123.8,73.7z"/>
	<path class="st2" d="M132,66.3h-1.3v-1.5l0.6-0.1c0.7-0.1,1.3-0.7,1.4-1.5l0.3-1.2h1.5v2.5h2.5v1.7h-2.5v4.5
		c-0.1,0.5,0.3,1,0.8,1.1c0.1,0,0.2,0,0.3,0c0.5,0,1.1-0.2,1.6-0.4v1.6c-0.7,0.5-1.6,0.8-2.5,0.8c-1.3,0.2-2.4-0.7-2.6-2
		c0-0.2,0-0.4,0-0.6V66.3L132,66.3L132,66.3z"/>
	<path class="st2" d="M139.5,70.6c0.1,1.1,1,1.7,2.2,1.7c0.9,0,1.7-0.3,1.7-1s-0.4-0.9-1.3-1l-1.5-0.3c-2-0.3-3-1-3-2.7
		c0-1.7,1.5-3,3.8-3c2.5,0,4.1,1.1,4.2,3.2l-2.1,0.1c-0.2-1-0.9-1.6-2.2-1.6c-0.9,0-1.5,0.4-1.5,1c0,0.5,0.5,0.9,1,0.9l1.7,0.3
		c1.9,0.3,3.1,1.1,3.1,2.9c0,1.9-1.6,2.9-4,2.9s-4.2-1-4.4-3.3L139.5,70.6L139.5,70.6L139.5,70.6z"/>
	<polygon class="st2" points="146.4,70.9 149.2,70.9 149.2,73.7 146.4,73.7 146.4,70.9 	"/>
	<path class="st5" d="M21,52.8c0,1,0.9,1.9,1.9,1.9c0,0,0.1,0,0.1,0c0.9,0,1.7-0.3,2.3-0.9l-2.7-3.5C21.7,50.7,21.1,51.7,21,52.8z"
		/>
	<path class="st5" d="M25,45.5c0-0.6-0.5-1.1-1.1-1.1c-0.6,0-1.1,0.5-1.1,1.1c0,0,0,0,0,0c0.1,0.7,0.5,1.4,1.1,1.9
		C24.5,47.1,25,46.3,25,45.5z"/>
	<path class="st5" d="M42.4,67.8L42.4,67.8L42.4,67.8L28.9,30.7l0,0v-0.1c-0.7-1.9-2.5-3.3-4.6-3.3h-0.5c-2.1,0.1-3.9,1.4-4.6,3.3
		c0,0,0,0,0,0.1l0,0l-13.5,37l0,0c0,0,0,0,0,0.1c-1,2.6,0.4,5.6,3.1,6.5c2.6,1,5.6-0.4,6.5-3.1c0,0,0,0,0-0.1l0,0l2.1-5.9h13.1
		l2.1,5.9l0,0c0,0,0,0,0,0.1c1.2,2.6,4.2,3.7,6.8,2.5C41.9,72.7,43,70.2,42.4,67.8z M29.4,57c-0.6,0.4-1.4,0.2-1.8-0.4l0,0l-0.8-1
		c-1.1,0.8-2.5,1.3-3.9,1.3c-3.2,0-4.8-1.7-4.8-4c0-2.1,1.3-3.4,3.2-4.3c-0.8-0.8-1.2-1.9-1.2-3c0-1.9,1.5-3.4,3.8-3.4
		s3.8,1.3,3.8,3.3c0,1.8-1,2.7-2.6,3.5l1.9,2.5c0.3-0.7,0.5-1.5,0.6-2.3l0,0c0-0.7,0.6-1.2,1.2-1.2c0.7,0,1.2,0.6,1.2,1.2l0,0
		c0,0,0,0.1,0,0.1c0,0.1,0,0.1,0,0.2c-0.1,1.5-0.6,2.9-1.3,4.2l1.2,1.5l0,0C30.3,55.8,30,56.6,29.4,57C29.4,57,29.4,57,29.4,57
		L29.4,57z"/>
	<path class="st2" d="M52.9,45l-5.3,13.1h2.6l1.3-3.2h5.6l1.3,3.2h2.8L55.8,45H52.9L52.9,45z M54.3,47.9L54.3,47.9l2.1,4.9h-4
		L54.3,47.9L54.3,47.9L54.3,47.9z M60.8,53.5c-0.1,2.5,1.8,4.7,4.4,4.8c0.2,0,0.3,0,0.5,0c2.3,0.1,4.3-1.6,4.4-3.9c0,0,0,0,0-0.1
		L68,54.2c-0.2,1.4-1,2.3-2.3,2.3s-2.3-1-2.3-2.9s1-2.9,2.3-2.9c1.2,0,2.3,0.9,2.3,2.2c0,0,0,0,0,0.1l2.1-0.1
		c-0.1-2.3-2.1-4.1-4.4-4c0,0,0,0-0.1,0c-2.5-0.1-4.7,1.8-4.8,4.4C60.8,53.2,60.8,53.4,60.8,53.5L60.8,53.5L60.8,53.5z M71.6,55.8
		c-0.2,1.3,0.7,2.4,2,2.6c0.2,0,0.4,0,0.6,0c0.9,0,1.8-0.2,2.5-0.8v-1.6c-0.5,0.3-1,0.4-1.6,0.4c-0.5,0.1-1-0.3-1.1-0.8
		c0-0.1,0-0.2,0-0.3v-4.5h2.5v-1.7H74v-2.6h-1.5l-0.3,1.2c0,0.8-0.6,1.4-1.4,1.5l-0.6,0.1v1.5h1.3L71.6,55.8L71.6,55.8L71.6,55.8z
		 M77.6,48.9v9.2h2.5v-9.2L77.6,48.9L77.6,48.9z M77.6,47.4h2.6V45h-2.6V47.4L77.6,47.4z M83.6,53.5c0-1.7,0.8-3,2.3-3
		s2.3,1.2,2.3,3s-0.8,2.9-2.3,2.9C84.3,56.4,83.6,55.2,83.6,53.5L83.6,53.5z M90.7,53.5c0-2.7-2.2-4.8-4.8-4.8
		c-2.7,0-4.8,2.2-4.8,4.8c0,2.7,2.2,4.8,4.8,4.8c2.6,0.1,4.7-1.9,4.8-4.4C90.7,53.7,90.7,53.6,90.7,53.5L90.7,53.5z M94.2,53.2
		c0-1.5,0.8-2.5,2.1-2.5s1.8,0.8,1.8,2.2V58h2.5v-5.7c0-2-0.9-3.7-3.3-3.7c-1.3-0.1-2.4,0.6-3,1.7v-1.5h-2.5v9.2h2.5V53.2L94.2,53.2
		L94.2,53.2z M107.5,54.1c0.1,1.3-0.9,2.4-2.1,2.5c-0.1,0-0.1,0-0.2,0c-0.6,0.1-1.1-0.3-1.2-0.8c0,0,0-0.1,0-0.2
		c0-0.9,0.8-1.1,1.9-1.3l1.7-0.4L107.5,54.1L107.5,54.1L107.5,54.1z M109.9,52.2c0-2.4-1.6-3.5-3.9-3.5s-3.9,1.3-4.2,3.2l2.3,0.2
		c0.1-0.9,0.9-1.6,1.8-1.5c0.8-0.1,1.5,0.5,1.6,1.3c0,0.1,0,0.2,0,0.3v0.2l-2.5,0.5c-2.1,0.4-3.5,1.1-3.5,2.9c0,1.6,1.2,2.5,3.1,2.5
		c1.3,0.1,2.5-0.5,3.1-1.6c0.1,1,1,1.6,1.9,1.6c0.6,0,1.2-0.2,1.7-0.6v-1.3c-0.2,0.1-0.5,0.2-0.8,0.2c-0.3,0-0.6-0.2-0.6-0.6
		c0,0,0-0.1,0-0.1L109.9,52.2L109.9,52.2L109.9,52.2z M114.5,53.3c0-1.7,1-2.7,2.4-2.7c1.6,0,2.4,1.1,2.4,2.9s-0.8,2.9-2.4,2.9
		c-1.4,0-2.4-1-2.4-2.7V53.3L114.5,53.3L114.5,53.3z M114.4,56.3c0.6,1.3,1.8,2.1,3.2,2c2.7,0,4.2-2.1,4.2-4.8
		c0-2.7-1.4-4.8-4.1-4.8c-1.4-0.1-2.7,0.7-3.2,2V45H112v13.1h1.9L114.4,56.3L114.4,56.3L114.4,56.3z M122.7,45v13.1h2.5V45L122.7,45
		L122.7,45z M133.4,54.9c-0.3,1-1.3,1.7-2.3,1.6c-1.3,0-2.4-1-2.5-2.3h6.9v-0.9c0.1-2.4-1.7-4.4-4.1-4.6c-0.2,0-0.3,0-0.5,0
		c-2.6,0-4.8,2.1-4.8,4.7c0,0.1,0,0.2,0,0.3c0,2.9,2,4.7,4.9,4.7c2.3,0,3.9-1.2,4.4-3.2L133.4,54.9L133.4,54.9L133.4,54.9z
		 M128.6,52.6c0.1-1.2,1.1-2.1,2.3-2.1c1.1,0,2.1,0.9,2.1,2c0,0,0,0,0,0.1h-4.5H128.6z"/>
	<path class="st2" d="M54.5,60.3c3.9,0,6,2.4,6.2,5.7l-2.5,0.1c-0.2-2-1.4-3.6-3.7-3.6c-2.4,0-3.9,1.7-3.9,4.5s1.5,4.5,3.9,4.5
		c2.3,0,3.6-1.6,3.7-3.6l2.5,0.1c-0.2,3.3-2.4,5.7-6.2,5.7c-3.8,0-6.8-3-6.8-6.8C47.7,63.4,50.8,60.3,54.5,60.3L54.5,60.3L54.5,60.3
		L54.5,60.3z"/>
	<path class="st2" d="M66.2,73.9c-2.7,0-4.8-2.2-4.8-4.8c0-2.7,2.2-4.8,4.8-4.8c2.7,0,4.8,2.2,4.8,4.8c0.1,2.5-1.9,4.7-4.4,4.8
		C66.5,74,66.3,74,66.2,73.9L66.2,73.9z M66.2,72.1c1.5,0,2.3-1.2,2.3-2.9c0-1.7-0.8-3-2.3-3c-1.5,0-2.3,1.2-2.3,3
		C63.9,70.9,64.7,72.1,66.2,72.1L66.2,72.1z"/>
	<path class="st2" d="M74.4,73.7h-2.5v-9.2h2.5V66c0.6-1.1,1.7-1.8,3-1.7c2.5,0,3.4,1.7,3.4,3.7v5.7h-2.5v-5.2
		c0-1.4-0.6-2.2-1.8-2.2c-1.2,0-2.1,1-2.1,2.5L74.4,73.7L74.4,73.7L74.4,73.7z"/>
</g>
</svg>
